SplineFontDB: 3.2
FontName: Icelandic-Runes
FullName: Icelandic Runes
FamilyName: Icelandic
Weight: Regular
Copyright: Copyright (c) 2022, Valberg Larusson
UComments: "2022-11-6: Created with FontForge (http://fontforge.org)"
Version: 001.000
ItalicAngle: 0
UnderlinePosition: -100
UnderlineWidth: 50
Ascent: 800
Descent: 200
InvalidEm: 0
sfntRevision: 0x00030000
LayerCount: 2
Layer: 0 0 "Back" 1
Layer: 1 0 "Fore" 0
XUID: [1021 891 -715214472 2263]
StyleMap: 0x0000
FSType: 0
OS2Version: 0
OS2_WeightWidthSlopeOnly: 0
OS2_UseTypoMetrics: 1
CreationTime: 1667691412
ModificationTime: 1667985142
OS2TypoAscent: 0
OS2TypoAOffset: 1
OS2TypoDescent: 0
OS2TypoDOffset: 1
OS2TypoLinegap: 90
OS2WinAscent: 0
OS2WinAOffset: 1
OS2WinDescent: 0
OS2WinDOffset: 1
HheadAscent: 0
HheadAOffset: 1
HheadDescent: 0
HheadDOffset: 1
OS2Vendor: 'PfEd'
MarkAttachClasses: 1
DEI: 91125
Encoding: ISO8859-1
UnicodeInterp: none
NameList: AGL For New Fonts
DisplaySize: -48
AntiAlias: 1
FitToEm: 0
WinInfo: 90 18 10
BeginPrivate: 0
EndPrivate
BeginChars: 256 70

StartChar: B
Encoding: 66 66 0
Width: 334
Flags: HW
HStem: 0 30<77 121.479> 687 61<44.5 80.8544>
VStem: 33 33<526.448 686.997> 70 26<55.1699 281.083> 74 34<30 232.254 323.106 373.623> 263 34<87.7968 128.342>
LayerCount: 2
Fore
SplineSet
33 723 m 0xf4
 35 738 41 749 48 749 c 0
 76 749 252 584 274 538 c 0
 278 528 285 520 289 520 c 0
 294 520 296 519 296 516 c 0
 296 510 282 497 256 481 c 0
 234 466 213 451 210 446 c 0
 207 440 182 420 156 399 c 0
 128 378 106 357 106 352 c 0
 107 347 122 325 142 303 c 0
 208 229 293 121 297 107 c 0
 297 106 297 106 297 105 c 0
 297 96 290 91 269 83 c 0
 252 77 233 67 226 61 c 0
 204 42 101 0 78 0 c 0
 76 0 74 -1 74 0 c 0xec
 74 1 70 88 70 189 c 0
 70 305 59 435 48 536 c 0
 38 614 33 687 33 714 c 0
 33 718 33 721 33 723 c 0xf4
145 630 m 0
 101 668 81 687 72 687 c 0
 68 687 66 683 66 674 c 0
 66 666 69 653 69 637 c 0
 69 514 93 378 97 378 c 0
 102 378 178 437 231 482 c 2
 256 504 l 1
 225 545 l 2
 208 568 171 607 145 630 c 0
195 192 m 0
 156 236 119 278 112 288 c 0
 99 303 97 303 97 280 c 0
 97 269 96 255 96 239 c 0xf4
 96 168 101 65 107 58 c 0
 111 54 112 44 109 36 c 0
 108 34 108 33 108 32 c 0
 108 30 109 30 112 30 c 0
 117 30 130 34 155 43 c 0
 215 66 263 93 263 104 c 0
 263 109 233 148 195 192 c 0
EndSplineSet
EndChar

StartChar: A
Encoding: 65 65 1
Width: 256
Flags: HW
VStem: 153 32<2.16542 166.835 195.201 464.803>
LayerCount: 2
Fore
SplineSet
132 713 m 0
 135 723 141 731 146 731 c 0
 153 731 159 708 166 654 c 0
 171 611 178 566 178 553 c 0
 178 541 185 412 185 268 c 0
 185 195 187 142 187 103 c 0
 187 25 184 2 179 0 c 0
 173 -3 166 -3 164 0 c 0
 162 3 159 42 159 84 c 0
 159 127 156 164 152 167 c 0
 152 167 151 167 150 167 c 0
 143 167 123 160 102 148 c 0
 78 136 54 125 49 125 c 0
 42 125 38 127 38 130 c 0
 38 136 54 148 82 162 c 0
 149 197 153 189 153 296 c 0
 153 313 153 333 153 356 c 0
 153 445 146 547 140 602 c 0
 134 643 131 683 131 702 c 0
 131 707 132 711 132 713 c 0
EndSplineSet
EndChar

StartChar: C
Encoding: 67 67 2
Width: 378
Flags: HW
HStem: -0 21G<340.5 345.5> 423 22<223.786 307.917>
VStem: 41 23<408 614.036> 335 14<0.0973969 177.162> 335 8<55.539 184.77>
LayerCount: 2
Fore
SplineSet
18 725 m 0xf0
 18 759 30 764 36 734 c 0
 49 674 63 534 63 442 c 1
 63 408 l 1
 111 413 l 2
 137 416 178 423 202 429 c 0
 246 440 276 445 295 445 c 0
 311 445 319 442 323 435 c 0
 333 416 343 354 343 181 c 0xe8
 343 99 348 25 349 17 c 0xf0
 350 9 348 2 343 0 c 0xe8
 343 0 343 0 342 0 c 0
 339 0 335 17 335 41 c 0
 335 207 319 410 306 422 c 0
 306 422 304 423 301 423 c 0
 276 423 158 403 137 395 c 0
 128 392 103 387 81 383 c 2
 41 378 l 1
 41 461 l 2
 41 507 36 579 29 620 c 0
 23 662 18 709 18 725 c 0xf0
EndSplineSet
EndChar

StartChar: D
Encoding: 68 68 3
Width: 316
Flags: HW
HStem: -0 21G<264 276.5> 543 33<60.0479 216.766> 715 34<20.1067 201.829>
LayerCount: 2
Fore
SplineSet
67 749 m 0
 77 751 96 752 118 752 c 0
 163 752 219 748 241 742 c 0
 252 739 257 735 257 728 c 0
 257 723 254 717 247 709 c 0
 242 704 240 696 240 681 c 0
 240 671 243 658 243 640 c 0
 243 608 253 578 259 571 c 0
 266 563 266 558 259 549 c 0
 254 544 252 534 252 523 c 0
 252 520 252 516 253 512 c 0
 262 460 287 107 287 44 c 0
 287 41 287 39 287 37 c 0
 287 12 281 2 272 0 c 0
 271 0 270 0 269 0 c 0
 259 0 256 13 256 86 c 0
 256 134 255 180 254 186 c 0
 253 192 247 227 247 264 c 0
 247 464 224 519 217 532 c 0
 212 541 207 544 180 544 c 0
 169 544 154 543 135 543 c 0
 127 543 120 543 113 543 c 0
 79 543 57 545 56 549 c 0
 56 550 55 551 55 552 c 0
 55 565 96 576 155 576 c 2
 214 576 l 1
 214 637 l 1
 214 670 206 700 202 704 c 0
 199 708 155 715 106 715 c 0
 57 715 16 721 16 725 c 0
 16 734 33 743 67 749 c 0
EndSplineSet
EndChar

StartChar: E
Encoding: 69 69 4
Width: 252
Flags: HW
HStem: 397 27<48.4272 103> 412 28<134.196 213.875>
VStem: 143 23<17.5342 54.7478>
LayerCount: 2
Fore
SplineSet
81 745 m 0xa0
 84 753 87 756 90 756 c 0
 96 756 104 730 104 679 c 0
 104 568 124 451 128 443 c 0
 129 441 140 440 156 440 c 0
 164 440 173 444 183 444 c 1
 235 444 l 1
 217 428 l 2
 205 418 189 412 170 412 c 0x60
 154 412 138 408 134 403 c 0
 132 400 130 389 130 374 c 0
 130 361 131 346 133 328 c 0
 137 292 147 222 147 171 c 0
 147 121 158 66 163 49 c 0
 165 39 166 32 166 26 c 0
 166 18 164 13 159 8 c 0
 153 2 146 -3 143 0 c 0
 136 7 120 106 120 171 c 0
 120 205 107 269 107 315 c 1
 107 397 l 1
 69 397 l 2
 22 397 23 413 70 424 c 2
 103 431 l 1
 99 466 l 2
 90 540 80 681 80 728 c 0
 80 735 80 743 81 745 c 0xa0
EndSplineSet
EndChar

StartChar: F
Encoding: 70 70 5
Width: 336
Flags: HW
HStem: 724 20G<24 30>
VStem: 18 41<540.724 734> 70 13<132.074 209.538>
LayerCount: 2
Fore
SplineSet
252 753 m 0
 257 755 270 757 279 757 c 0
 280 757 282 757 283 757 c 0
 287 757 290 756 290 755 c 0
 290 751 278 743 250 728 c 0
 232 718 206 703 192 694 c 0
 177 685 157 674 147 668 c 0
 68 624 59 616 59 596 c 0
 59 573 70 495 74 491 c 1
 80 491 167 540 228 578 c 0
 247 591 275 602 290 604 c 2
 317 607 l 1
 287 589 l 2
 271 580 256 571 255 571 c 0
 253 571 234 560 212 546 c 0
 190 531 155 511 134 500 c 0
 86 475 74 466 74 442 c 0
 74 438 74 433 75 427 c 0
 77 410 83 349 83 292 c 0
 83 113 94 37 101 26 c 0
 108 12 90 -7 80 3 c 0
 77 6 70 48 70 95 c 0
 70 367 50 450 34 575 c 0
 23 664 18 708 18 728 c 0
 18 744 21 745 27 745 c 0
 33 745 39 727 44 691 c 0
 48 662 53 637 54 636 c 0
 57 636 73 646 93 658 c 0
 114 671 147 689 166 700 c 0
 185 709 210 725 221 734 c 0
 232 742 246 750 252 753 c 0
EndSplineSet
EndChar

StartChar: G
Encoding: 71 71 6
Width: 372
Flags: HW
HStem: 0 21G<66 70.5> 600 21<107.375 129.983>
VStem: 32 31<445.722 763.958> 41 27<171.317 403.682 445 630.912> 107 23<600.184 620.649>
LayerCount: 2
Fore
SplineSet
107 610 m 0xc8
 110 616 115 621 121 621 c 0
 126 621 130 616 130 610 c 0
 130 605 124 600 116 600 c 0
 108 600 104 604 107 610 c 0xc8
33 759 m 0
 34 762 41 764 49 764 c 0
 60 764 63 758 63 725 c 0xe8
 63 670 68 552 68 492 c 0
 68 465 71 445 75 445 c 0
 76 445 76 445 76 445 c 0
 83 447 184 563 250 646 c 0
 301 709 331 737 351 737 c 0
 357 737 361 736 361 733 c 0
 361 727 349 714 321 687 c 0
 299 665 280 645 280 642 c 0
 280 640 263 619 243 597 c 0
 222 575 205 554 205 551 c 0
 205 548 174 511 137 470 c 0
 75 401 67 405 67 313 c 0
 67 290 68 260 68 221 c 0
 68 161 71 89 75 61 c 0
 77 46 78 34 78 25 c 0
 78 8 74 0 67 0 c 0
 65 0 63 -1 60 0 c 0
 48 4 41 134 41 364 c 0xd8
 41 447 35 569 35 634 c 0
 35 681 32 723 32 745 c 0xe8
 32 754 32 758 33 759 c 0
EndSplineSet
EndChar

StartChar: H
Encoding: 72 72 7
Width: 488
Flags: HW
HStem: 0 21G<241.5 249>
VStem: 185 19<711.008 760.537> 204 26<411.377 641.914> 210 62<302.094 350.972>
LayerCount: 2
Fore
SplineSet
349 441 m 0x80
 358 455 369 467 372 468 c 0
 374 468 375 467 375 465 c 0
 375 458 362 441 348 428 c 0
 333 415 333 415 349 441 c 0x80
398 500 m 0
 412 514 425 526 426 526 c 0
 427 526 427 526 427 525 c 0
 427 519 392 480 384 477 c 0
 378 474 385 485 398 500 c 0
439 553 m 2
 446 566 458 576 465 576 c 0
 483 576 482 573 451 550 c 2
 425 531 l 1
 439 553 l 2
186 753 m 0
 189 762 204 768 204 761 c 0
 204 760 207 741 212 719 c 0
 218 683 230 638 230 472 c 0xa0
 230 386 239 352 255 352 c 0
 263 352 275 361 291 378 c 0
 325 413 333 410 303 374 c 0
 284 352 272 326 272 311 c 0x90
 272 307 273 304 275 302 c 0
 299 284 417 87 417 67 c 0
 417 66 l 0
 416 62 413 60 411 60 c 0
 403 60 389 78 369 114 c 0
 322 194 284 248 262 266 c 2
 238 283 l 1
 238 233 l 1
 238 206 252 143 252 92 c 0
 252 61 254 41 254 27 c 0
 254 5 252 0 246 0 c 0
 237 0 230 16 230 81 c 0xa0
 230 214 217 266 212 266 c 0
 209 266 194 253 181 235 c 0
 148 196 42 86 35 86 c 0
 34 86 34 86 34 87 c 0
 34 94 83 150 145 215 c 0
 199 270 210 283 210 300 c 0x90
 210 302 209 305 209 308 c 0
 204 341 157 408 77 495 c 0
 38 537 10 575 10 583 c 0
 10 602 23 602 40 582 c 0
 57 562 113 504 127 492 c 0
 132 488 149 467 165 447 c 0
 181 427 196 410 199 410 c 0
 203 410 204 425 204 450 c 0xa0
 204 489 193 553 193 628 c 0
 193 678 185 725 185 745 c 0xc0
 185 750 186 752 186 753 c 0
EndSplineSet
EndChar

StartChar: I
Encoding: 73 73 8
Width: 144
Flags: HW
HStem: 0 21G<106.5 112.5>
VStem: 99 21<0.0205688 185.606>
LayerCount: 2
Fore
SplineSet
27 745 m 0
 33 756 49 753 53 740 c 0
 59 722 75 644 75 600 c 0
 75 580 89 514 89 455 c 0
 89 354 120 70 120 23 c 0
 120 7 116 0 109 0 c 0
 104 0 99 6 99 12 c 0
 99 34 85 250 82 275 c 0
 80 289 75 322 75 348 c 0
 75 483 49 598 36 664 c 0
 30 697 26 727 26 739 c 0
 26 742 26 744 27 745 c 0
EndSplineSet
EndChar

StartChar: J
Encoding: 74 74 9
Width: 450
Flags: HW
HStem: 0 21G<264 271.5> 709 42<233 285.391>
VStem: 211 26<589.336 715> 243 19<91.7061 413.698> 247 31<54 211.873>
LayerCount: 2
Fore
SplineSet
217 740 m 0xf0
 222 746 230 749 236 749 c 0
 249 749 319 715 388 673 c 0
 426 650 439 641 439 635 c 0
 439 633 437 631 434 629 c 0
 427 623 422 620 415 620 c 0
 406 620 393 628 365 644 c 0
 315 675 249 709 240 709 c 0
 238 709 237 703 237 693 c 0
 237 685 239 673 239 660 c 0
 239 528 262 437 262 275 c 0xf0
 262 178 269 79 273 56 c 0
 276 39 278 27 278 18 c 0
 278 6 275 0 268 0 c 0
 260 0 245 10 223 28 c 0
 154 84 117 111 79 135 c 0
 34 164 14 180 14 192 c 0
 14 193 14 195 15 196 c 0
 17 201 21 206 24 206 c 0
 36 206 122 149 171 109 c 0
 225 66 242 54 246 54 c 0
 247 54 l 0
 247 54 247 57 247 62 c 0xe8
 247 85 243 154 243 233 c 0
 243 418 229 551 216 662 c 0
 213 687 211 704 211 715 c 0
 211 729 213 735 217 740 c 0xf0
EndSplineSet
EndChar

StartChar: K
Encoding: 75 75 10
Width: 286
Flags: HW
HStem: 0 21G<133 136>
LayerCount: 2
Fore
SplineSet
18 738 m 0
 21 746 24 749 28 749 c 0
 35 749 43 736 48 713 c 0
 67 633 87 557 87 518 c 0
 87 495 94 476 96 476 c 0
 101 476 111 492 180 609 c 0
 222 682 249 714 263 714 c 0
 279 714 277 706 256 686 c 0
 231 663 175 583 149 532 c 0
 138 508 121 475 112 460 c 0
 105 447 100 441 100 415 c 0
 100 376 138 290 138 59 c 0
 138 45 140 34 140 24 c 0
 140 8 138 0 134 0 c 0
 132 0 129 2 126 6 c 0
 120 15 115 48 79 363 c 0
 59 536 58 547 41 615 c 0
 22 690 16 716 16 728 c 0
 16 732 17 736 18 738 c 0
EndSplineSet
EndChar

StartChar: L
Encoding: 76 76 11
Width: 238
Flags: HW
HStem: -0 21G<106.5 113>
VStem: 20 29<660.177 742.837>
LayerCount: 2
Fore
SplineSet
22 717 m 0
 21 726 20 733 20 738 c 0
 20 747 22 749 28 749 c 0
 34 749 41 745 43 742 c 0
 46 738 59 728 73 719 c 0
 107 697 224 585 224 574 c 0
 224 568 223 565 219 565 c 0
 213 565 199 577 172 604 c 0
 129 647 61 700 51 700 c 0
 50 700 l 0
 50 700 49 698 49 694 c 0
 49 682 52 650 57 615 c 0
 62 570 84 453 84 353 c 0
 84 189 117 50 117 16 c 0
 117 9 115 2 111 0 c 0
 110 0 l 0
 103 0 88 28 88 159 c 0
 88 204 80 248 78 258 c 0
 76 267 64 322 64 380 c 0
 64 471 40 589 22 717 c 0
EndSplineSet
EndChar

StartChar: M
Encoding: 77 77 12
Width: 428
Flags: HW
HStem: 0 21G<281.5 286.5>
VStem: 24 1<696.048 699.952> 177 22<715.875 753.907>
LayerCount: 2
Fore
SplineSet
182 754 m 0
 188 757 194 756 199 749 c 0
 206 740 210 720 230 598 c 0
 235 572 241 551 244 551 c 0
 253 551 265 566 329 662 c 0
 377 733 399 760 410 760 c 0
 412 760 414 759 415 758 c 2
 415 758 415 758 415 757 c 0
 415 754 406 742 392 728 c 0
 378 713 354 680 339 655 c 0
 325 630 304 597 292 582 c 0
 281 567 265 540 256 523 c 0
 248 506 245 496 245 482 c 0
 245 473 246 462 249 446 c 0
 253 421 271 332 271 247 c 0
 271 163 288 75 292 52 c 0
 294 38 296 28 296 19 c 0
 296 11 294 6 292 4 c 0
 290 2 287 0 286 0 c 0
 277 0 265 26 265 94 c 0
 265 244 236 357 224 437 c 2
 212 514 l 1
 160 562 l 2
 131 589 96 618 82 626 c 0
 53 643 24 679 24 696 c 0
 24 697 24 699 25 700 c 0
 30 715 34 714 50 694 c 0
 57 684 81 664 103 649 c 0
 125 634 155 609 170 593 c 0
 184 579 198 568 202 568 c 0
 203 569 204 573 204 578 c 0
 204 584 203 592 201 601 c 0
 183 695 177 731 177 745 c 0
 177 753 179 752 182 754 c 0
EndSplineSet
EndChar

StartChar: N
Encoding: 78 78 13
Width: 298
Flags: HW
HStem: 0 21G<132.5 140>
VStem: 10 31<674.493 746.906> 125 20<0.124676 101.822>
LayerCount: 2
Fore
SplineSet
15 745 m 0
 26 753 41 756 41 749 c 0
 42 746 45 730 47 715 c 0
 72 601 93 507 93 474 c 0
 93 453 101 409 105 377 c 2
 112 317 l 1
 169 258 l 2
 201 225 242 181 259 160 c 0
 279 136 287 125 287 118 c 0
 287 115 285 112 283 109 c 0
 280 105 278 103 275 103 c 0
 270 103 262 112 243 134 c 0
 196 189 130 258 122 258 c 1
 122 258 122 257 122 255 c 0
 122 247 124 224 129 199 c 0
 134 168 143 111 143 72 c 0
 143 49 145 33 145 22 c 0
 145 3 143 0 137 0 c 0
 128 0 125 6 125 27 c 0
 125 42 120 79 114 109 c 0
 109 140 98 214 90 276 c 0
 61 506 49 578 19 690 c 0
 13 713 10 727 10 735 c 0
 10 742 12 743 15 745 c 0
EndSplineSet
EndChar

StartChar: O
Encoding: 79 79 14
Width: 190
Flags: HW
HStem: -0 21G<154 162.5> 726 20G<83 87.5>
VStem: 55 114<25 75> 72 43<515.601 735.75>
LayerCount: 2
Fore
SplineSet
76 745 m 0xd0
 79 747 82 745 84 745 c 0
 91 745 95 736 98 716 c 0
 110 628 115 583 115 544 c 0xd0
 115 519 118 493 121 488 c 0
 123 483 130 443 130 400 c 0
 130 357 137 303 140 279 c 0
 144 256 149 218 153 195 c 0
 159 153 169 71 169 25 c 0
 169 9 166 2 159 0 c 0
 158 0 l 0
 150 0 144 9 144 46 c 0
 144 73 137 98 134 103 c 0
 132 107 128 108 124 108 c 0
 115 108 102 101 85 87 c 0
 75 78 64 71 61 71 c 0
 57 71 55 73 55 75 c 0xe0
 55 85 77 109 106 129 c 0
 125 142 127 147 127 172 c 0
 127 192 124 202 118 205 c 0
 117 205 116 205 115 205 c 0
 105 205 76 191 41 167 c 0
 35 163 28 161 25 164 c 0
 24 165 24 166 24 167 c 0
 24 176 45 196 83 221 c 2
 117 247 l 1
 117 281 l 2
 115 300 111 339 108 367 c 0
 104 396 100 435 98 452 c 0
 96 471 81 542 81 612 c 0
 81 673 72 706 72 724 c 0
 72 736 73 743 76 745 c 0xd0
EndSplineSet
EndChar

StartChar: P
Encoding: 80 80 15
Width: 450
Flags: HW
HStem: 0 21G<428.5 435.5> 727 20G<24 30>
VStem: 97 19<18.0967 78.7211>
LayerCount: 2
Fore
SplineSet
15 741 m 0
 18 745 22 745 26 745 c 0
 34 745 42 738 45 722 c 0
 48 710 54 688 59 672 c 0
 68 642 86 568 86 504 c 0
 86 472 92 463 101 462 c 0
 102 462 103 462 104 462 c 0
 117 462 134 480 233 591 c 0
 335 705 351 722 363 722 c 0
 369 722 373 720 373 716 c 0
 373 709 362 694 341 671 c 0
 260 586 208 529 165 476 c 0
 135 441 122 424 122 410 c 0
 122 400 129 392 140 380 c 0
 149 371 183 332 215 293 c 0
 247 253 279 215 285 209 c 0
 291 202 301 188 308 177 c 0
 314 167 323 156 327 153 c 0
 330 149 358 118 388 83 c 0
 424 40 441 16 441 6 c 0
 441 2 438 0 433 0 c 0
 424 0 330 104 257 196 c 0
 200 268 118 355 108 355 c 0
 102 355 97 341 97 325 c 0
 97 318 98 311 100 305 c 0
 102 296 105 265 105 235 c 0
 105 205 112 146 112 102 c 0
 112 73 116 53 116 41 c 0
 116 26 114 20 111 18 c 0
 106 16 100 16 97 19 c 0
 92 24 56 117 56 448 c 0
 56 491 49 532 47 538 c 0
 46 545 43 565 40 582 c 0
 38 599 30 641 22 674 c 0
 15 702 12 718 12 728 c 0
 12 734 13 739 15 741 c 0
EndSplineSet
EndChar

StartChar: Q
Encoding: 81 81 16
Width: 406
Flags: HW
HStem: 0 21G<382 389.5>
VStem: 207 18<564.125 585.85> 288 21<688.237 740.528>
LayerCount: 2
Fore
SplineSet
207 577 m 0
 212 590 225 591 225 578 c 0
 225 567 213 557 207 563 c 0
 205 565 205 571 207 577 c 0
288 732 m 0
 293 743 303 746 309 736 c 0
 311 734 317 702 323 668 c 0
 328 632 336 591 340 574 c 0
 344 557 357 489 357 422 c 0
 357 168 387 55 391 28 c 0
 395 5 394 0 385 0 c 0
 379 0 373 3 370 6 c 0
 368 9 360 53 360 103 c 0
 360 152 346 227 346 268 c 0
 346 336 336 345 322 354 c 0
 313 360 280 387 250 414 c 0
 220 441 174 480 148 501 c 0
 122 522 80 558 54 582 c 0
 25 610 14 622 14 630 c 0
 14 631 14 633 15 634 c 0
 18 638 19 641 23 641 c 0
 31 641 49 625 114 568 c 0
 215 483 208 488 271 433 c 0
 300 406 326 387 330 387 c 0
 331 387 331 387 331 387 c 0
 332 388 333 393 333 400 c 0
 333 435 319 540 302 629 c 0
 293 673 288 714 288 728 c 0
 288 730 288 731 288 732 c 0
EndSplineSet
EndChar

StartChar: R
Encoding: 82 82 17
Width: 422
Flags: HW
VStem: 37 19<431.135 569.728> 53 28<14.0231 215.435> 53 17<53.3722 252.31> 232 42<443.457 488.991>
LayerCount: 2
Fore
SplineSet
22 741 m 0x90
 23 741 23 741 24 741 c 0
 39 741 90 691 155 611 c 0
 171 592 205 551 230 520 c 0
 255 490 274 461 274 454 c 0
 271 449 256 438 239 429 c 0
 222 421 194 403 178 388 c 0
 117 336 82 303 82 298 c 0
 82 296 100 282 122 268 c 0
 143 255 192 213 229 175 c 0
 283 122 380 33 404 15 c 0
 406 14 403 9 399 4 c 0
 392 -3 387 -1 376 10 c 0
 368 18 342 42 318 62 c 0
 294 83 249 123 217 153 c 0
 161 207 96 253 77 253 c 0
 72 253 70 244 70 216 c 0x30
 70 204 71 189 71 169 c 0
 71 123 79 69 79 49 c 0
 79 39 81 31 81 25 c 0
 81 16 79 13 73 13 c 0
 57 13 53 24 53 103 c 0x50
 53 142 51 188 49 204 c 0
 46 221 37 309 37 399 c 0
 37 490 21 603 21 649 c 0
 21 683 16 705 16 718 c 0
 16 732 18 738 22 741 c 0x90
129 593 m 0
 93 633 61 666 58 666 c 0
 57 666 56 645 56 613 c 0x90
 56 534 60 391 64 353 c 0
 67 335 70 321 73 321 c 0
 76 321 101 342 128 368 c 0
 156 393 190 425 205 438 c 0
 220 451 232 464 232 467 c 0
 232 474 212 498 129 593 c 0
EndSplineSet
EndChar

StartChar: S
Encoding: 83 83 18
Width: 186
Flags: HW
HStem: 0 30<85.5705 136.402>
VStem: 26 35<580.603 736.904> 54 31<32.843 91.2539> 89 20<156.645 162.673> 141 29<35.6152 87.219>
LayerCount: 2
Fore
SplineSet
34 737 m 0xd8
 37 738 40 739 43 739 c 0
 55 739 61 725 61 690 c 0xd8
 61 666 66 629 72 608 c 0
 78 588 87 545 87 513 c 0
 87 481 98 414 98 364 c 0
 98 314 109 252 109 226 c 0
 109 156 125 124 144 116 c 0
 161 110 170 96 170 78 c 0
 170 63 164 45 152 27 c 0
 136 4 130 0 107 0 c 0
 73 0 54 19 54 46 c 0xb8
 54 62 60 80 73 98 c 0
 85 116 89 126 89 146 c 0
 89 151 88 156 88 163 c 0
 85 183 69 267 69 349 c 0
 69 431 48 543 40 597 c 0
 30 661 26 696 26 715 c 0
 26 730 29 735 34 737 c 0xd8
128 87 m 0
 120 91 110 95 106 95 c 0
 98 95 85 68 85 51 c 0
 85 50 85 48 85 47 c 0xb8
 87 36 102 30 116 30 c 0
 124 30 132 32 135 38 c 0
 139 45 141 52 141 60 c 0
 141 71 137 82 128 87 c 0
EndSplineSet
EndChar

StartChar: T
Encoding: 84 84 19
Width: 248
Flags: HW
HStem: -0 21G<217 226> 665 52<137.948 188>
VStem: 173 31<309.199 629.415>
LayerCount: 2
Fore
SplineSet
108 678 m 0
 154 705 176 717 185 717 c 0
 191 717 193 712 193 705 c 0
 194 698 197 664 197 631 c 0
 197 598 204 513 204 442 c 0
 204 371 212 303 212 290 c 0
 212 278 219 235 219 196 c 0
 219 133 233 73 233 18 c 0
 233 9 229 2 223 0 c 0
 222 0 l 0
 212 0 209 14 202 80 c 0
 197 124 188 197 188 241 c 0
 188 285 181 329 181 339 c 0
 181 350 173 425 173 506 c 0
 173 587 166 658 164 663 c 0
 163 665 162 665 159 665 c 0
 150 665 130 655 95 635 c 0
 60 614 36 604 26 604 c 0
 25 604 24 604 23 605 c 0
 21 607 20 609 20 611 c 0
 20 622 45 640 108 678 c 0
EndSplineSet
EndChar

StartChar: U
Encoding: 85 85 20
Width: 458
Flags: HW
HStem: 0 21G<95.5 102.5> 681 47<41 83.9648>
LayerCount: 2
Fore
SplineSet
25 716 m 0
 32 723 39 728 43 728 c 0
 58 728 140 673 209 616 c 0
 251 580 306 536 330 516 c 0
 364 488 373 476 373 461 c 0
 373 460 373 459 373 458 c 0
 373 421 405 218 438 51 c 0
 440 41 441 31 441 23 c 0
 441 16 440 11 439 10 c 0
 439 10 439 10 438 10 c 0
 435 10 427 41 419 81 c 0
 412 123 397 200 387 252 c 0
 377 304 364 372 358 402 c 0
 350 446 343 461 325 476 c 0
 312 487 284 512 261 532 c 0
 154 623 74 681 53 681 c 0
 45 681 43 674 48 652 c 0
 57 604 99 445 99 134 c 0
 99 77 109 24 110 16 c 0
 110 6 106 0 99 0 c 0
 92 0 87 9 87 24 c 0
 87 72 75 166 72 193 c 0
 70 208 61 258 61 303 c 0
 61 513 36 554 29 595 c 0
 20 649 16 676 16 692 c 0
 16 705 19 710 25 716 c 0
EndSplineSet
EndChar

StartChar: V
Encoding: 86 86 21
Width: 590
Flags: HW
HStem: 269 33<108.158 148.128> 277 28<28.4231 65.8394> 697 42<54.0476 105.585>
VStem: 16 37<563.186 714> 66 83<274.964 326.5>
LayerCount: 2
Fore
SplineSet
20 735 m 0x78
 25 744 33 748 46 745 c 0
 55 742 67 739 73 739 c 0
 78 739 107 722 135 703 c 0
 165 683 213 653 244 637 c 0
 273 620 314 597 333 585 c 0
 352 573 389 552 413 539 c 0
 477 505 494 487 494 454 c 0
 494 439 497 406 500 382 c 0
 506 335 569 29 575 20 c 0
 577 17 573 10 566 5 c 0
 556 -4 554 -1 550 15 c 0
 523 125 479 336 471 391 c 0
 460 467 465 463 360 522 c 0
 179 625 139 649 116 668 c 0
 97 685 72 697 60 697 c 0
 57 697 55 697 54 695 c 0
 54 695 53 694 53 691 c 0
 53 676 61 614 71 544 c 0
 83 463 94 376 98 351 c 0
 103 312 107 306 125 302 c 0
 141 298 149 289 149 281 c 0
 149 275 143 269 130 269 c 0
 118 269 108 265 108 261 c 0
 108 246 134 58 139 40 c 0
 142 25 140 21 126 21 c 0
 107 21 107 25 88 168 c 0
 82 219 74 265 71 269 c 0xb8
 69 274 57 277 46 277 c 0
 35 277 26 280 26 283 c 0
 26 294 40 305 50 305 c 0
 52 305 54 305 55 304 c 0
 57 303 59 303 60 303 c 0
 64 303 66 306 66 317 c 0
 66 336 60 382 46 479 c 0
 35 561 18 649 18 675 c 0
 18 686 16 698 16 708 c 0
 16 720 17 730 20 735 c 0x78
EndSplineSet
EndChar

StartChar: X
Encoding: 88 88 22
Width: 552
Flags: HW
HStem: -0 21G<329 337.5> 321 45<335.476 498.5> 336 30<339.384 499>
VStem: 12 44<114.021 293> 249 34<604.014 735.525> 499 40<367 628.184>
LayerCount: 2
Fore
SplineSet
249 712 m 0xdc
 249 728 255 736 263 736 c 0
 270 736 278 729 283 715 c 0
 287 703 305 632 305 559 c 0
 305 366 323 374 345 370 c 0
 355 368 394 367 431 367 c 2xdc
 499 367 l 1
 499 422 l 2
 499 453 491 526 491 585 c 0
 491 622 487 647 487 663 c 0
 487 690 491 696 498 698 c 0
 506 702 513 703 515 701 c 0
 518 698 534 616 534 442 c 1
 534 337 l 1
 519 337 l 2xbc
 508 337 489 331 478 331 c 0
 466 331 432 325 401 325 c 0
 371 325 343 321 339 321 c 0
 336 321 335 308 335 287 c 0
 335 238 342 146 351 76 c 0
 354 53 356 37 356 26 c 0
 356 14 354 9 349 6 c 0
 344 2 339 0 336 0 c 0
 322 0 307 35 307 180 c 0
 307 281 294 315 284 318 c 0
 282 319 277 319 270 319 c 0
 254 319 227 317 199 313 c 0
 159 308 109 301 89 298 c 2
 52 293 l 1
 52 204 l 1
 52 183 56 167 56 154 c 0
 56 120 53 112 45 110 c 0
 44 110 43 110 42 110 c 0
 27 110 15 134 15 237 c 0
 15 262 12 278 12 289 c 0
 12 310 16 313 28 320 c 0
 39 326 100 338 162 347 c 0
 262 361 289 366 289 374 c 0
 289 376 289 377 288 378 c 0
 286 381 279 415 279 452 c 0
 279 489 267 558 261 604 c 0
 254 650 249 698 249 712 c 0xdc
EndSplineSet
EndChar

StartChar: Y
Encoding: 89 89 23
Width: 344
Flags: HW
HStem: 0 21G<170.5 187.5>
LayerCount: 2
Fore
SplineSet
90 720 m 0
 97 727 102 732 106 732 c 0
 119 732 132 694 132 584 c 0
 132 439 157 308 165 298 c 0
 169 294 174 278 177 265 c 0
 182 242 248 138 300 73 c 0
 321 46 317 38 288 45 c 0
 268 50 242 81 206 141 c 0
 196 159 188 168 183 168 c 0
 179 168 177 161 177 147 c 0
 177 139 179 128 179 115 c 0
 179 87 189 54 194 42 c 0
 198 32 201 24 201 17 c 0
 201 6 194 0 181 0 c 0
 160 0 149 4 149 104 c 0
 149 150 138 189 136 192 c 0
 135 192 l 0
 126 192 98 160 59 103 c 0
 40 74 23 57 17 57 c 0
 15 57 14 59 14 62 c 0
 14 69 75 157 106 193 c 2
 137 231 l 1
 131 290 l 2
 127 323 117 388 111 437 c 0
 95 554 86 642 86 687 c 0
 86 705 87 716 90 720 c 0
EndSplineSet
EndChar

StartChar: Z
Encoding: 90 90 24
Width: 304
Flags: HW
HStem: -0 21G<275 283> 396 32<166.509 220.996> 409 28<53.3984 124.853> 715 23<112.817 157.027>
VStem: 67 30<651.341 702.186> 134 27<212.357 396> 137 25<11.3357 120.448> 169 22<660.033 702.373>
LayerCount: 2
Fore
SplineSet
164 693 m 0x99
 157 708 145 715 132 715 c 0
 114 715 97 701 97 679 c 0
 97 675 97 672 98 668 c 0
 102 655 105 651 114 651 c 0
 118 651 124 652 131 653 c 0
 158 657 169 663 169 675 c 0
 169 680 167 686 164 693 c 0x99
103 721 m 0
 121 732 134 738 145 738 c 0
 156 738 166 733 177 722 c 0
 187 713 191 702 191 690 c 0
 191 675 184 658 169 644 c 0
 158 633 154 622 154 577 c 0
 154 567 155 555 155 541 c 0
 155 445 163 428 201 428 c 0
 216 428 221 424 221 412 c 0
 221 399 218 396 202 396 c 0
 199 396 195 396 191 396 c 2
 161 396 l 1
 161 312 l 1xdd
 161 265 166 219 168 212 c 0
 171 204 199 160 231 112 c 0
 262 66 288 22 288 13 c 0
 288 4 285 0 281 0 c 0
 269 0 246 24 218 65 c 0
 196 97 176 121 171 121 c 0
 169 118 162 93 162 65 c 0
 162 35 154 13 148 10 c 0
 147 10 147 10 147 10 c 2
 140 10 137 31 137 87 c 0xdb
 137 132 134 168 130 168 c 0
 120 168 48 91 42 74 c 0
 39 65 30 59 24 59 c 0
 20 59 18 61 18 64 c 0
 18 77 46 112 93 159 c 2
 134 203 l 1
 134 267 l 1
 134 301 129 349 129 372 c 2
 129 414 l 1
 87 414 l 2
 79 413 71 409 65 409 c 0
 53 409 45 410 45 412 c 0
 45 423 75 437 98 437 c 0xbd
 110 437 122 441 125 446 c 0
 126 448 127 458 127 472 c 0
 127 488 124 510 124 534 c 0
 124 609 117 615 98 622 c 0
 79 629 67 648 67 668 c 0
 67 674 68 680 70 685 c 0
 73 694 88 710 103 721 c 0
EndSplineSet
Validated: 1
EndChar

StartChar: W
Encoding: 87 87 25
Width: 600
Flags: HW
LayerCount: 2
Fore
SplineSet
32 735 m 0
 37 744 45 748 58 745 c 0
 67 742 79 739 85 739 c 0
 90 739 119 722 147 703 c 0
 177 683 225 653 256 637 c 0
 285 620 326 597 345 585 c 0
 364 573 401 552 425 539 c 0
 489 505 506 487 506 454 c 0
 506 439 509 406 512 382 c 0
 518 335 581 29 587 20 c 0
 589 17 585 10 578 5 c 0
 568 -4 566 -1 562 15 c 0
 535 125 491 336 483 391 c 0
 472 467 477 463 372 522 c 0
 191 625 151 649 128 668 c 0
 109 685 84 697 72 697 c 0
 69 697 67 697 66 695 c 2
 66 695 65 694 65 691 c 0
 65 676 73 614 83 544 c 0
 90 493 98 439 103 401 c 0
 104 395 127 391 137 384 c 0
 146 378 143 368 144 364 c 0
 144 355 110 356 110 351 c 0
 115 312 119 306 137 302 c 0
 153 298 161 289 161 281 c 0
 161 275 155 269 142 269 c 0
 130 269 120 265 120 261 c 0
 120 246 146 58 151 40 c 0
 154 25 152 21 138 21 c 0
 119 21 119 25 100 168 c 0
 94 219 86 265 83 269 c 0
 81 274 69 277 58 277 c 0
 47 277 38 280 38 283 c 0
 38 294 52 305 62 305 c 0
 64 305 66 305 67 304 c 0
 69 303 70 303 71 303 c 0
 75 303 77 306 77 314 c 0
 77 321 75 333 72 350 c 0
 70 361 41 347 38 366 c 0
 37 375 41 379 49 387 c 0
 57 396 65 383 68 396 c 0
 69 398 69 401 69 404 c 0
 69 425 60 467 58 479 c 0
 47 561 30 649 30 675 c 0
 30 686 28 698 28 708 c 0
 28 720 29 730 32 735 c 0
EndSplineSet
Validated: 1
EndChar

StartChar: a
Encoding: 97 97 26
Width: 256
Flags: HW
VStem: 153 32<2.16542 166.835 195.201 464.803>
LayerCount: 2
Fore
SplineSet
132 713 m 0
 135 723 141 731 146 731 c 0
 153 731 159 708 166 654 c 0
 171 611 178 566 178 553 c 0
 178 541 185 412 185 268 c 0
 185 195 187 142 187 103 c 0
 187 25 184 2 179 0 c 0
 173 -3 166 -3 164 0 c 0
 162 3 159 42 159 84 c 0
 159 127 156 164 152 167 c 0
 152 167 151 167 150 167 c 0
 143 167 123 160 102 148 c 0
 78 136 54 125 49 125 c 0
 42 125 38 127 38 130 c 0
 38 136 54 148 82 162 c 0
 149 197 153 189 153 296 c 0
 153 313 153 333 153 356 c 0
 153 445 146 547 140 602 c 0
 134 643 131 683 131 702 c 0
 131 707 132 711 132 713 c 0
EndSplineSet
EndChar

StartChar: b
Encoding: 98 98 27
Width: 334
Flags: HW
HStem: 0 30<77 121.479> 687 61<44.5 80.8544>
VStem: 33 33<526.448 686.997> 70 26<55.1699 281.083> 74 34<30 232.254 323.106 373.623> 263 34<87.7968 128.342>
LayerCount: 2
Fore
SplineSet
33 723 m 0xf4
 35 738 41 749 48 749 c 0
 76 749 252 584 274 538 c 0
 278 528 285 520 289 520 c 0
 294 520 296 519 296 516 c 0
 296 510 282 497 256 481 c 0
 234 466 213 451 210 446 c 0
 207 440 182 420 156 399 c 0
 128 378 106 357 106 352 c 0
 107 347 122 325 142 303 c 0
 208 229 293 121 297 107 c 0
 297 106 297 106 297 105 c 0
 297 96 290 91 269 83 c 0
 252 77 233 67 226 61 c 0
 204 42 101 0 78 0 c 0
 76 0 74 -1 74 0 c 0xec
 74 1 70 88 70 189 c 0
 70 305 59 435 48 536 c 0
 38 614 33 687 33 714 c 0
 33 718 33 721 33 723 c 0xf4
145 630 m 0
 101 668 81 687 72 687 c 0
 68 687 66 683 66 674 c 0
 66 666 69 653 69 637 c 0
 69 514 93 378 97 378 c 0
 102 378 178 437 231 482 c 2
 256 504 l 1
 225 545 l 2
 208 568 171 607 145 630 c 0
195 192 m 0
 156 236 119 278 112 288 c 0
 99 303 97 303 97 280 c 0
 97 269 96 255 96 239 c 0xf4
 96 168 101 65 107 58 c 0
 111 54 112 44 109 36 c 0
 108 34 108 33 108 32 c 0
 108 30 109 30 112 30 c 0
 117 30 130 34 155 43 c 0
 215 66 263 93 263 104 c 0
 263 109 233 148 195 192 c 0
EndSplineSet
EndChar

StartChar: c
Encoding: 99 99 28
Width: 378
Flags: HW
HStem: -0 21G<340.5 345.5> 423 22<223.786 307.917>
VStem: 41 23<408 614.036> 335 14<0.0973969 177.162> 335 8<55.539 184.77>
LayerCount: 2
Fore
SplineSet
18 725 m 0xf0
 18 759 30 764 36 734 c 0
 49 674 63 534 63 442 c 1
 63 408 l 1
 111 413 l 2
 137 416 178 423 202 429 c 0
 246 440 276 445 295 445 c 0
 311 445 319 442 323 435 c 0
 333 416 343 354 343 181 c 0xe8
 343 99 348 25 349 17 c 0xf0
 350 9 348 2 343 0 c 0xe8
 343 0 343 0 342 0 c 0
 339 0 335 17 335 41 c 0
 335 207 319 410 306 422 c 0
 306 422 304 423 301 423 c 0
 276 423 158 403 137 395 c 0
 128 392 103 387 81 383 c 2
 41 378 l 1
 41 461 l 2
 41 507 36 579 29 620 c 0
 23 662 18 709 18 725 c 0xf0
EndSplineSet
EndChar

StartChar: d
Encoding: 100 100 29
Width: 316
Flags: HW
HStem: -0 21G<264 276.5> 543 33<60.0479 216.766> 715 34<20.1067 201.829>
LayerCount: 2
Fore
SplineSet
67 749 m 0
 77 751 96 752 118 752 c 0
 163 752 219 748 241 742 c 0
 252 739 257 735 257 728 c 0
 257 723 254 717 247 709 c 0
 242 704 240 696 240 681 c 0
 240 671 243 658 243 640 c 0
 243 608 253 578 259 571 c 0
 266 563 266 558 259 549 c 0
 254 544 252 534 252 523 c 0
 252 520 252 516 253 512 c 0
 262 460 287 107 287 44 c 0
 287 41 287 39 287 37 c 0
 287 12 281 2 272 0 c 0
 271 0 270 0 269 0 c 0
 259 0 256 13 256 86 c 0
 256 134 255 180 254 186 c 0
 253 192 247 227 247 264 c 0
 247 464 224 519 217 532 c 0
 212 541 207 544 180 544 c 0
 169 544 154 543 135 543 c 0
 127 543 120 543 113 543 c 0
 79 543 57 545 56 549 c 0
 56 550 55 551 55 552 c 0
 55 565 96 576 155 576 c 2
 214 576 l 1
 214 637 l 1
 214 670 206 700 202 704 c 0
 199 708 155 715 106 715 c 0
 57 715 16 721 16 725 c 0
 16 734 33 743 67 749 c 0
EndSplineSet
EndChar

StartChar: e
Encoding: 101 101 30
Width: 252
Flags: HW
HStem: 397 27<48.4272 103> 412 28<134.196 213.875>
VStem: 143 23<17.5342 54.7478>
LayerCount: 2
Fore
SplineSet
81 745 m 0xa0
 84 753 87 756 90 756 c 0
 96 756 104 730 104 679 c 0
 104 568 124 451 128 443 c 0
 129 441 140 440 156 440 c 0
 164 440 173 444 183 444 c 1
 235 444 l 1
 217 428 l 2
 205 418 189 412 170 412 c 0x60
 154 412 138 408 134 403 c 0
 132 400 130 389 130 374 c 0
 130 361 131 346 133 328 c 0
 137 292 147 222 147 171 c 0
 147 121 158 66 163 49 c 0
 165 39 166 32 166 26 c 0
 166 18 164 13 159 8 c 0
 153 2 146 -3 143 0 c 0
 136 7 120 106 120 171 c 0
 120 205 107 269 107 315 c 1
 107 397 l 1
 69 397 l 2
 22 397 23 413 70 424 c 2
 103 431 l 1
 99 466 l 2
 90 540 80 681 80 728 c 0
 80 735 80 743 81 745 c 0xa0
EndSplineSet
EndChar

StartChar: f
Encoding: 102 102 31
Width: 336
Flags: HW
HStem: 724 20G<24 30>
VStem: 18 41<540.724 734> 70 13<132.074 209.538>
LayerCount: 2
Fore
SplineSet
252 753 m 0
 257 755 270 757 279 757 c 0
 280 757 282 757 283 757 c 0
 287 757 290 756 290 755 c 0
 290 751 278 743 250 728 c 0
 232 718 206 703 192 694 c 0
 177 685 157 674 147 668 c 0
 68 624 59 616 59 596 c 0
 59 573 70 495 74 491 c 1
 80 491 167 540 228 578 c 0
 247 591 275 602 290 604 c 2
 317 607 l 1
 287 589 l 2
 271 580 256 571 255 571 c 0
 253 571 234 560 212 546 c 0
 190 531 155 511 134 500 c 0
 86 475 74 466 74 442 c 0
 74 438 74 433 75 427 c 0
 77 410 83 349 83 292 c 0
 83 113 94 37 101 26 c 0
 108 12 90 -7 80 3 c 0
 77 6 70 48 70 95 c 0
 70 367 50 450 34 575 c 0
 23 664 18 708 18 728 c 0
 18 744 21 745 27 745 c 0
 33 745 39 727 44 691 c 0
 48 662 53 637 54 636 c 0
 57 636 73 646 93 658 c 0
 114 671 147 689 166 700 c 0
 185 709 210 725 221 734 c 0
 232 742 246 750 252 753 c 0
EndSplineSet
EndChar

StartChar: g
Encoding: 103 103 32
Width: 372
Flags: HW
HStem: 0 21G<66 70.5> 600 21<107.375 129.983>
VStem: 32 31<445.722 763.958> 41 27<171.317 403.682 445 630.912> 107 23<600.184 620.649>
LayerCount: 2
Fore
SplineSet
107 610 m 0xc8
 110 616 115 621 121 621 c 0
 126 621 130 616 130 610 c 0
 130 605 124 600 116 600 c 0
 108 600 104 604 107 610 c 0xc8
33 759 m 0
 34 762 41 764 49 764 c 0
 60 764 63 758 63 725 c 0xe8
 63 670 68 552 68 492 c 0
 68 465 71 445 75 445 c 0
 76 445 76 445 76 445 c 0
 83 447 184 563 250 646 c 0
 301 709 331 737 351 737 c 0
 357 737 361 736 361 733 c 0
 361 727 349 714 321 687 c 0
 299 665 280 645 280 642 c 0
 280 640 263 619 243 597 c 0
 222 575 205 554 205 551 c 0
 205 548 174 511 137 470 c 0
 75 401 67 405 67 313 c 0
 67 290 68 260 68 221 c 0
 68 161 71 89 75 61 c 0
 77 46 78 34 78 25 c 0
 78 8 74 0 67 0 c 0
 65 0 63 -1 60 0 c 0
 48 4 41 134 41 364 c 0xd8
 41 447 35 569 35 634 c 0
 35 681 32 723 32 745 c 0xe8
 32 754 32 758 33 759 c 0
EndSplineSet
EndChar

StartChar: h
Encoding: 104 104 33
Width: 488
Flags: HW
HStem: 0 21G<241.5 249>
VStem: 185 19<711.008 760.537> 204 26<411.377 641.914> 210 62<302.094 350.972>
LayerCount: 2
Fore
SplineSet
349 441 m 0x80
 358 455 369 467 372 468 c 0
 374 468 375 467 375 465 c 0
 375 458 362 441 348 428 c 0
 333 415 333 415 349 441 c 0x80
398 500 m 0
 412 514 425 526 426 526 c 0
 427 526 427 526 427 525 c 0
 427 519 392 480 384 477 c 0
 378 474 385 485 398 500 c 0
439 553 m 2
 446 566 458 576 465 576 c 0
 483 576 482 573 451 550 c 2
 425 531 l 1
 439 553 l 2
186 753 m 0
 189 762 204 768 204 761 c 0
 204 760 207 741 212 719 c 0
 218 683 230 638 230 472 c 0xa0
 230 386 239 352 255 352 c 0
 263 352 275 361 291 378 c 0
 325 413 333 410 303 374 c 0
 284 352 272 326 272 311 c 0x90
 272 307 273 304 275 302 c 0
 299 284 417 87 417 67 c 0
 417 66 l 0
 416 62 413 60 411 60 c 0
 403 60 389 78 369 114 c 0
 322 194 284 248 262 266 c 2
 238 283 l 1
 238 233 l 1
 238 206 252 143 252 92 c 0
 252 61 254 41 254 27 c 0
 254 5 252 0 246 0 c 0
 237 0 230 16 230 81 c 0xa0
 230 214 217 266 212 266 c 0
 209 266 194 253 181 235 c 0
 148 196 42 86 35 86 c 0
 34 86 34 86 34 87 c 0
 34 94 83 150 145 215 c 0
 199 270 210 283 210 300 c 0x90
 210 302 209 305 209 308 c 0
 204 341 157 408 77 495 c 0
 38 537 10 575 10 583 c 0
 10 602 23 602 40 582 c 0
 57 562 113 504 127 492 c 0
 132 488 149 467 165 447 c 0
 181 427 196 410 199 410 c 0
 203 410 204 425 204 450 c 0xa0
 204 489 193 553 193 628 c 0
 193 678 185 725 185 745 c 0xc0
 185 750 186 752 186 753 c 0
EndSplineSet
EndChar

StartChar: i
Encoding: 105 105 34
Width: 144
Flags: HW
HStem: 0 21G<106.5 112.5>
VStem: 99 21<0.0205688 185.606>
LayerCount: 2
Fore
SplineSet
27 745 m 0
 33 756 49 753 53 740 c 0
 59 722 75 644 75 600 c 0
 75 580 89 514 89 455 c 0
 89 354 120 70 120 23 c 0
 120 7 116 0 109 0 c 0
 104 0 99 6 99 12 c 0
 99 34 85 250 82 275 c 0
 80 289 75 322 75 348 c 0
 75 483 49 598 36 664 c 0
 30 697 26 727 26 739 c 0
 26 742 26 744 27 745 c 0
EndSplineSet
EndChar

StartChar: j
Encoding: 106 106 35
Width: 450
Flags: HW
HStem: 0 21G<264 271.5> 709 42<233 285.391>
VStem: 211 26<589.336 715> 243 19<91.7061 413.698> 247 31<54 211.873>
LayerCount: 2
Fore
SplineSet
217 740 m 0xf0
 222 746 230 749 236 749 c 0
 249 749 319 715 388 673 c 0
 426 650 439 641 439 635 c 0
 439 633 437 631 434 629 c 0
 427 623 422 620 415 620 c 0
 406 620 393 628 365 644 c 0
 315 675 249 709 240 709 c 0
 238 709 237 703 237 693 c 0
 237 685 239 673 239 660 c 0
 239 528 262 437 262 275 c 0xf0
 262 178 269 79 273 56 c 0
 276 39 278 27 278 18 c 0
 278 6 275 0 268 0 c 0
 260 0 245 10 223 28 c 0
 154 84 117 111 79 135 c 0
 34 164 14 180 14 192 c 0
 14 193 14 195 15 196 c 0
 17 201 21 206 24 206 c 0
 36 206 122 149 171 109 c 0
 225 66 242 54 246 54 c 0
 247 54 l 0
 247 54 247 57 247 62 c 0xe8
 247 85 243 154 243 233 c 0
 243 418 229 551 216 662 c 0
 213 687 211 704 211 715 c 0
 211 729 213 735 217 740 c 0xf0
EndSplineSet
EndChar

StartChar: k
Encoding: 107 107 36
Width: 286
Flags: HW
HStem: 0 21G<133 136>
LayerCount: 2
Fore
SplineSet
18 738 m 0
 21 746 24 749 28 749 c 0
 35 749 43 736 48 713 c 0
 67 633 87 557 87 518 c 0
 87 495 94 476 96 476 c 0
 101 476 111 492 180 609 c 0
 222 682 249 714 263 714 c 0
 279 714 277 706 256 686 c 0
 231 663 175 583 149 532 c 0
 138 508 121 475 112 460 c 0
 105 447 100 441 100 415 c 0
 100 376 138 290 138 59 c 0
 138 45 140 34 140 24 c 0
 140 8 138 0 134 0 c 0
 132 0 129 2 126 6 c 0
 120 15 115 48 79 363 c 0
 59 536 58 547 41 615 c 0
 22 690 16 716 16 728 c 0
 16 732 17 736 18 738 c 0
EndSplineSet
EndChar

StartChar: l
Encoding: 108 108 37
Width: 238
Flags: HW
HStem: -0 21G<106.5 113>
VStem: 20 29<660.177 742.837>
LayerCount: 2
Fore
SplineSet
22 717 m 0
 21 726 20 733 20 738 c 0
 20 747 22 749 28 749 c 0
 34 749 41 745 43 742 c 0
 46 738 59 728 73 719 c 0
 107 697 224 585 224 574 c 0
 224 568 223 565 219 565 c 0
 213 565 199 577 172 604 c 0
 129 647 61 700 51 700 c 0
 50 700 l 0
 50 700 49 698 49 694 c 0
 49 682 52 650 57 615 c 0
 62 570 84 453 84 353 c 0
 84 189 117 50 117 16 c 0
 117 9 115 2 111 0 c 0
 110 0 l 0
 103 0 88 28 88 159 c 0
 88 204 80 248 78 258 c 0
 76 267 64 322 64 380 c 0
 64 471 40 589 22 717 c 0
EndSplineSet
EndChar

StartChar: m
Encoding: 109 109 38
Width: 428
Flags: HW
HStem: 0 21G<281.5 286.5>
VStem: 24 1<696.048 699.952> 177 22<715.875 753.907>
LayerCount: 2
Fore
SplineSet
182 754 m 0
 188 757 194 756 199 749 c 0
 206 740 210 720 230 598 c 0
 235 572 241 551 244 551 c 0
 253 551 265 566 329 662 c 0
 377 733 399 760 410 760 c 0
 412 760 414 759 415 758 c 2
 415 758 415 758 415 757 c 0
 415 754 406 742 392 728 c 0
 378 713 354 680 339 655 c 0
 325 630 304 597 292 582 c 0
 281 567 265 540 256 523 c 0
 248 506 245 496 245 482 c 0
 245 473 246 462 249 446 c 0
 253 421 271 332 271 247 c 0
 271 163 288 75 292 52 c 0
 294 38 296 28 296 19 c 0
 296 11 294 6 292 4 c 0
 290 2 287 0 286 0 c 0
 277 0 272 26 265 94 c 0
 250 244 236 357 224 437 c 2
 212 514 l 1
 160 562 l 2
 131 589 96 618 82 626 c 0
 53 643 24 679 24 696 c 0
 24 697 24 699 25 700 c 0
 30 715 34 714 50 694 c 0
 57 684 81 664 103 649 c 0
 125 634 155 609 170 593 c 0
 184 579 198 568 202 568 c 0
 203 569 204 573 204 578 c 0
 204 584 203 592 201 601 c 0
 183 695 177 731 177 745 c 0
 177 753 179 752 182 754 c 0
EndSplineSet
EndChar

StartChar: n
Encoding: 110 110 39
Width: 298
Flags: HW
HStem: 0 21G<132.5 140>
VStem: 10 31<674.493 746.906> 125 20<0.124676 101.822>
LayerCount: 2
Fore
SplineSet
15 745 m 0
 26 753 41 756 41 749 c 0
 42 746 45 730 47 715 c 0
 72 601 93 507 93 474 c 0
 93 453 101 409 105 377 c 2
 112 317 l 1
 169 258 l 2
 201 225 242 181 259 160 c 0
 279 136 287 125 287 118 c 0
 287 115 285 112 283 109 c 0
 280 105 278 103 275 103 c 0
 270 103 262 112 243 134 c 0
 196 189 130 258 122 258 c 1
 122 258 122 257 122 255 c 0
 122 247 124 224 129 199 c 0
 134 168 143 111 143 72 c 0
 143 49 145 33 145 22 c 0
 145 3 143 0 137 0 c 0
 128 0 125 6 125 27 c 0
 125 42 120 79 114 109 c 0
 109 140 98 214 90 276 c 0
 61 506 49 578 19 690 c 0
 13 713 10 727 10 735 c 0
 10 742 12 743 15 745 c 0
EndSplineSet
EndChar

StartChar: o
Encoding: 111 111 40
Width: 190
Flags: HW
HStem: -0 21G<154 162.5> 726 20G<83 87.5>
VStem: 55 114<25 75> 72 43<515.601 735.75>
LayerCount: 2
Fore
SplineSet
76 745 m 0xd0
 79 747 82 745 84 745 c 0
 91 745 95 736 98 716 c 0
 110 628 115 583 115 544 c 0xd0
 115 519 118 493 121 488 c 0
 123 483 130 443 130 400 c 0
 130 357 137 303 140 279 c 0
 144 256 149 218 153 195 c 0
 159 153 169 71 169 25 c 0
 169 9 166 2 159 0 c 0
 158 0 l 0
 150 0 144 9 144 46 c 0
 144 73 137 98 134 103 c 0
 132 107 128 108 124 108 c 0
 115 108 102 101 85 87 c 0
 75 78 64 71 61 71 c 0
 57 71 55 73 55 75 c 0xe0
 55 85 77 109 106 129 c 0
 125 142 127 147 127 172 c 0
 127 192 124 202 118 205 c 0
 117 205 116 205 115 205 c 0
 105 205 76 191 41 167 c 0
 35 163 28 161 25 164 c 0
 24 165 24 166 24 167 c 0
 24 176 45 196 83 221 c 2
 117 247 l 1
 117 281 l 2
 115 300 111 339 108 367 c 0
 104 396 100 435 98 452 c 0
 96 471 81 542 81 612 c 0
 81 673 72 706 72 724 c 0
 72 736 73 743 76 745 c 0xd0
EndSplineSet
EndChar

StartChar: p
Encoding: 112 112 41
Width: 450
Flags: HW
HStem: 0 21G<428.5 435.5> 727 20G<24 30>
VStem: 97 19<18.0967 78.7211>
LayerCount: 2
Fore
SplineSet
15 741 m 0
 18 745 22 745 26 745 c 0
 34 745 42 738 45 722 c 0
 48 710 54 688 59 672 c 0
 68 642 86 568 86 504 c 0
 86 472 92 463 101 462 c 0
 102 462 103 462 104 462 c 0
 117 462 134 480 233 591 c 0
 335 705 351 722 363 722 c 0
 369 722 373 720 373 716 c 0
 373 709 362 694 341 671 c 0
 260 586 208 529 165 476 c 0
 135 441 122 424 122 410 c 0
 122 400 129 392 140 380 c 0
 149 371 183 332 215 293 c 0
 247 253 279 215 285 209 c 0
 291 202 301 188 308 177 c 0
 314 167 323 156 327 153 c 0
 330 149 358 118 388 83 c 0
 424 40 441 16 441 6 c 0
 441 2 438 0 433 0 c 0
 424 0 330 104 257 196 c 0
 200 268 118 355 108 355 c 0
 102 355 97 341 97 325 c 0
 97 318 98 311 100 305 c 0
 102 296 105 265 105 235 c 0
 105 205 112 146 112 102 c 0
 112 73 116 53 116 41 c 0
 116 26 114 20 111 18 c 0
 106 16 100 16 97 19 c 0
 92 24 56 117 56 448 c 0
 56 491 49 532 47 538 c 0
 46 545 43 565 40 582 c 0
 38 599 30 641 22 674 c 0
 15 702 12 718 12 728 c 0
 12 734 13 739 15 741 c 0
EndSplineSet
EndChar

StartChar: q
Encoding: 113 113 42
Width: 406
Flags: HW
HStem: 0 21G<382 389.5>
VStem: 207 18<564.125 585.85> 288 21<688.237 740.528>
LayerCount: 2
Fore
SplineSet
207 577 m 0
 212 590 225 591 225 578 c 0
 225 567 213 557 207 563 c 0
 205 565 205 571 207 577 c 0
288 732 m 0
 293 743 303 746 309 736 c 0
 311 734 317 702 323 668 c 0
 328 632 336 591 340 574 c 0
 344 557 357 489 357 422 c 0
 357 168 387 55 391 28 c 0
 395 5 394 0 385 0 c 0
 379 0 373 3 370 6 c 0
 368 9 360 53 360 103 c 0
 360 152 350 227 346 268 c 0
 339 336 336 345 322 354 c 0
 313 360 280 387 250 414 c 0
 220 441 174 480 148 501 c 0
 122 522 80 558 54 582 c 0
 25 610 14 622 14 630 c 0
 14 631 14 633 15 634 c 0
 18 638 19 641 23 641 c 0
 31 641 49 625 114 568 c 0
 215 483 208 488 271 433 c 0
 300 406 326 387 330 387 c 0
 331 387 331 387 331 387 c 0
 332 388 333 393 333 400 c 0
 333 435 319 540 302 629 c 0
 293 673 288 714 288 728 c 0
 288 730 288 731 288 732 c 0
EndSplineSet
EndChar

StartChar: r
Encoding: 114 114 43
Width: 422
Flags: HW
VStem: 37 19<431.135 569.728> 53 28<14.0231 215.435> 53 17<53.3722 252.31> 232 42<443.457 488.991>
LayerCount: 2
Fore
SplineSet
22 741 m 0x90
 23 741 23 741 24 741 c 0
 39 741 90 691 155 611 c 0
 171 592 205 551 230 520 c 0
 255 490 274 461 274 454 c 0
 271 449 256 438 239 429 c 0
 222 421 194 403 178 388 c 0
 117 336 82 303 82 298 c 0
 82 296 100 282 122 268 c 0
 143 255 192 213 229 175 c 0
 283 122 380 33 404 15 c 0
 406 14 403 9 399 4 c 0
 392 -3 387 -1 376 10 c 0
 368 18 342 42 318 62 c 0
 294 83 249 123 217 153 c 0
 161 207 96 253 77 253 c 0
 72 253 70 244 70 216 c 0x30
 70 204 71 189 71 169 c 0
 71 123 79 69 79 49 c 0
 79 39 81 31 81 25 c 0
 81 16 79 13 73 13 c 0
 57 13 53 24 53 103 c 0x50
 53 142 51 188 49 204 c 0
 46 221 37 309 37 399 c 0
 37 490 21 603 21 649 c 0
 21 683 16 705 16 718 c 0
 16 732 18 738 22 741 c 0x90
129 593 m 0
 93 633 61 666 58 666 c 0
 57 666 56 645 56 613 c 0x90
 56 534 60 391 64 353 c 0
 67 335 70 321 73 321 c 0
 76 321 101 342 128 368 c 0
 156 393 190 425 205 438 c 0
 220 451 232 464 232 467 c 0
 232 474 212 498 129 593 c 0
EndSplineSet
EndChar

StartChar: s
Encoding: 115 115 44
Width: 186
Flags: HW
HStem: 0 30<85.5705 136.402>
VStem: 26 35<580.603 736.904> 54 31<32.843 91.2539> 89 20<156.645 162.673> 141 29<35.6152 87.219>
LayerCount: 2
Fore
SplineSet
34 737 m 0xd8
 37 738 40 739 43 739 c 0
 55 739 61 725 61 690 c 0xd8
 61 666 66 629 72 608 c 0
 78 588 87 545 87 513 c 0
 87 481 98 414 98 364 c 0
 98 314 109 252 109 226 c 0
 109 156 125 124 144 116 c 0
 161 110 170 96 170 78 c 0
 170 63 164 45 152 27 c 0
 136 4 130 0 107 0 c 0
 73 0 54 19 54 46 c 0xb8
 54 62 60 80 73 98 c 0
 85 116 89 126 89 146 c 0
 89 151 88 156 88 163 c 0
 85 183 69 267 69 349 c 0
 69 431 48 543 40 597 c 0
 30 661 26 696 26 715 c 0
 26 730 29 735 34 737 c 0xd8
128 87 m 0
 120 91 110 95 106 95 c 0
 98 95 85 68 85 51 c 0
 85 50 85 48 85 47 c 0xb8
 87 36 102 30 116 30 c 0
 124 30 132 32 135 38 c 0
 139 45 141 52 141 60 c 0
 141 71 137 82 128 87 c 0
EndSplineSet
EndChar

StartChar: t
Encoding: 116 116 45
Width: 248
Flags: HW
HStem: -0 21G<217 226> 665 52<137.948 188>
VStem: 173 31<309.199 629.415>
LayerCount: 2
Fore
SplineSet
108 678 m 0
 154 705 176 717 185 717 c 0
 191 717 193 712 193 705 c 0
 194 698 197 664 197 631 c 0
 197 598 204 513 204 442 c 0
 204 371 212 303 212 290 c 0
 212 278 219 235 219 196 c 0
 219 133 233 73 233 18 c 0
 233 9 229 2 223 0 c 0
 222 0 l 0
 212 0 209 14 202 80 c 0
 197 124 188 197 188 241 c 0
 188 285 181 329 181 339 c 0
 181 350 173 425 173 506 c 0
 173 587 166 658 164 663 c 0
 163 665 162 665 159 665 c 0
 150 665 130 655 95 635 c 0
 60 614 36 604 26 604 c 0
 25 604 24 604 23 605 c 0
 21 607 20 609 20 611 c 0
 20 622 45 640 108 678 c 0
EndSplineSet
EndChar

StartChar: u
Encoding: 117 117 46
Width: 458
Flags: HW
HStem: 0 21G<95.5 102.5> 681 47<41 83.9648>
LayerCount: 2
Fore
SplineSet
25 716 m 0
 32 723 39 728 43 728 c 0
 58 728 140 673 209 616 c 0
 251 580 306 536 330 516 c 0
 364 488 373 476 373 461 c 0
 373 460 373 459 373 458 c 0
 373 421 405 218 438 51 c 0
 440 41 441 31 441 23 c 0
 441 16 440 11 439 10 c 0
 439 10 439 10 438 10 c 0
 435 10 427 41 419 81 c 0
 412 123 397 200 387 252 c 0
 377 304 364 372 358 402 c 0
 350 446 343 461 325 476 c 0
 312 487 284 512 261 532 c 0
 154 623 74 681 53 681 c 0
 45 681 43 674 48 652 c 0
 57 604 99 445 99 134 c 0
 99 77 109 24 110 16 c 0
 110 6 106 0 99 0 c 0
 92 0 87 9 87 24 c 0
 87 72 75 166 72 193 c 0
 70 208 61 258 61 303 c 0
 61 513 36 554 29 595 c 0
 20 649 16 676 16 692 c 0
 16 705 19 710 25 716 c 0
EndSplineSet
EndChar

StartChar: v
Encoding: 118 118 47
Width: 590
Flags: HW
HStem: 269 33<108.158 148.128> 277 28<28.4231 65.8394> 697 42<54.0476 105.585>
VStem: 16 37<563.186 714> 66 83<274.964 326.5>
LayerCount: 2
Fore
SplineSet
20 735 m 0x78
 25 744 33 748 46 745 c 0
 55 742 67 739 73 739 c 0
 78 739 107 722 135 703 c 0
 165 683 213 653 244 637 c 0
 273 620 314 597 333 585 c 0
 352 573 389 552 413 539 c 0
 477 505 494 487 494 454 c 0
 494 439 497 406 500 382 c 0
 506 335 569 29 575 20 c 0
 577 17 573 10 566 5 c 0
 556 -4 554 -1 550 15 c 0
 523 125 479 336 471 391 c 0
 460 467 465 463 360 522 c 0
 179 625 139 649 116 668 c 0
 97 685 72 697 60 697 c 0
 57 697 55 697 54 695 c 0
 54 695 53 694 53 691 c 0
 53 676 61 614 71 544 c 0
 83 463 94 376 98 351 c 0
 103 312 107 306 125 302 c 0
 141 298 149 289 149 281 c 0
 149 275 143 269 130 269 c 0
 118 269 108 265 108 261 c 0
 108 246 134 58 139 40 c 0
 142 25 140 21 126 21 c 0
 107 21 107 25 88 168 c 0
 82 219 74 265 71 269 c 0xb8
 69 274 57 277 46 277 c 0
 35 277 26 280 26 283 c 0
 26 294 40 305 50 305 c 0
 52 305 54 305 55 304 c 0
 57 303 59 303 60 303 c 0
 64 303 66 306 66 317 c 0
 66 336 60 382 46 479 c 0
 35 561 18 649 18 675 c 0
 18 686 16 698 16 708 c 0
 16 720 17 730 20 735 c 0x78
EndSplineSet
EndChar

StartChar: w
Encoding: 119 119 48
Width: 600
Flags: HW
LayerCount: 2
Fore
SplineSet
32 735 m 0
 37 744 45 748 58 745 c 0
 67 742 79 739 85 739 c 0
 90 739 119 722 147 703 c 0
 177 683 225 653 256 637 c 0
 285 620 326 597 345 585 c 0
 364 573 401 552 425 539 c 0
 489 505 506 487 506 454 c 0
 506 439 509 406 512 382 c 0
 518 335 581 29 587 20 c 0
 589 17 585 10 578 5 c 0
 568 -4 566 -1 562 15 c 0
 535 125 491 336 483 391 c 0
 472 467 477 463 372 522 c 0
 191 625 151 649 128 668 c 0
 109 685 84 697 72 697 c 0
 69 697 67 697 66 695 c 2
 66 695 65 694 65 691 c 0
 65 676 73 614 83 544 c 0
 90 493 98 439 103 401 c 0
 104 395 127 391 137 384 c 0
 146 378 143 368 144 364 c 0
 144 355 110 356 110 351 c 0
 115 312 119 306 137 302 c 0
 153 298 161 289 161 281 c 0
 161 275 155 269 142 269 c 0
 130 269 120 265 120 261 c 0
 120 246 146 58 151 40 c 0
 154 25 152 21 138 21 c 0
 119 21 119 25 100 168 c 0
 94 219 86 265 83 269 c 0
 81 274 69 277 58 277 c 0
 47 277 38 280 38 283 c 0
 38 294 52 305 62 305 c 0
 64 305 66 305 67 304 c 0
 69 303 70 303 71 303 c 0
 75 303 77 306 77 314 c 0
 77 321 75 333 72 350 c 0
 70 361 41 347 38 366 c 0
 37 375 41 379 49 387 c 0
 57 396 65 383 68 396 c 0
 69 398 69 401 69 404 c 0
 69 425 60 467 58 479 c 0
 47 561 30 649 30 675 c 0
 30 686 28 698 28 708 c 0
 28 720 29 730 32 735 c 0
EndSplineSet
Validated: 1
EndChar

StartChar: x
Encoding: 120 120 49
Width: 552
Flags: HW
HStem: -0 21G<329 337.5> 321 45<335.476 498.5> 336 30<339.384 499>
VStem: 12 44<114.021 293> 249 34<604.014 735.525> 499 40<367 628.184>
LayerCount: 2
Fore
SplineSet
249 712 m 0xdc
 249 728 255 736 263 736 c 0
 270 736 278 729 283 715 c 0
 287 703 305 632 305 559 c 0
 305 366 323 374 345 370 c 0
 355 368 394 367 431 367 c 2xdc
 499 367 l 1
 499 422 l 2
 499 453 491 526 491 585 c 0
 491 622 487 647 487 663 c 0
 487 690 491 696 498 698 c 0
 506 702 513 703 515 701 c 0
 518 698 534 616 534 442 c 1
 534 337 l 1
 519 337 l 2xbc
 508 337 489 331 478 331 c 0
 466 331 432 325 401 325 c 0
 371 325 343 321 339 321 c 0
 336 321 335 308 335 287 c 0
 335 238 342 146 351 76 c 0
 354 53 356 37 356 26 c 0
 356 14 354 9 349 6 c 0
 344 2 339 0 336 0 c 0
 322 0 307 35 307 180 c 0
 307 281 294 315 284 318 c 0
 282 319 277 319 270 319 c 0
 254 319 227 317 199 313 c 0
 159 308 109 301 89 298 c 2
 52 293 l 1
 52 204 l 1
 52 183 56 167 56 154 c 0
 56 120 53 112 45 110 c 0
 44 110 43 110 42 110 c 0
 27 110 15 134 15 237 c 0
 15 262 12 278 12 289 c 0
 12 310 16 313 28 320 c 0
 39 326 100 338 162 347 c 0
 262 361 289 366 289 374 c 0
 289 376 289 377 288 378 c 0
 286 381 279 415 279 452 c 0
 279 489 267 558 261 604 c 0
 254 650 249 698 249 712 c 0xdc
EndSplineSet
EndChar

StartChar: y
Encoding: 121 121 50
Width: 344
Flags: HW
HStem: 0 21G<170.5 187.5>
LayerCount: 2
Fore
SplineSet
90 720 m 0
 97 727 102 732 106 732 c 0
 119 732 132 694 132 584 c 0
 132 439 157 308 165 298 c 0
 169 294 174 278 177 265 c 0
 182 242 248 138 300 73 c 0
 321 46 317 38 288 45 c 0
 268 50 242 81 206 141 c 0
 196 159 188 168 183 168 c 0
 179 168 177 161 177 147 c 0
 177 139 179 128 179 115 c 0
 179 87 189 54 194 42 c 0
 198 32 201 24 201 17 c 0
 201 6 194 0 181 0 c 0
 160 0 149 4 149 104 c 0
 149 150 138 189 136 192 c 0
 135 192 l 0
 126 192 98 160 59 103 c 0
 40 74 23 57 17 57 c 0
 15 57 14 59 14 62 c 0
 14 69 75 157 106 193 c 2
 137 231 l 1
 131 290 l 2
 127 323 117 388 111 437 c 0
 95 554 86 642 86 687 c 0
 86 705 87 716 90 720 c 0
EndSplineSet
EndChar

StartChar: z
Encoding: 122 122 51
Width: 304
Flags: W
HStem: -0 21G<275 283> 396 32<166.509 220.996> 409 28<53.3984 124.853> 715 23<112.817 157.027>
VStem: 67 30<651.341 702.186> 134 27<212.357 396> 137 25<11.3357 120.448> 169 22<660.033 702.373>
LayerCount: 2
Fore
SplineSet
164 693 m 0x99
 157 708 145 715 132 715 c 0
 114 715 97 701 97 679 c 0
 97 675 97 672 98 668 c 0
 102 655 105 651 114 651 c 0
 118 651 124 652 131 653 c 0
 158 657 169 663 169 675 c 0
 169 680 167 686 164 693 c 0x99
103 721 m 0
 121 732 134 738 145 738 c 0
 156 738 166 733 177 722 c 0
 187 713 191 702 191 690 c 0
 191 675 184 658 169 644 c 0
 158 633 154 622 154 577 c 0
 154 567 155 555 155 541 c 0
 155 445 163 428 201 428 c 0
 216 428 221 424 221 412 c 0
 221 399 218 396 202 396 c 0
 199 396 195 396 191 396 c 2
 161 396 l 1
 161 312 l 1xdd
 161 265 166 219 168 212 c 0
 171 204 199 160 231 112 c 0
 262 66 288 22 288 13 c 0
 288 4 285 0 281 0 c 0
 269 0 246 24 218 65 c 0
 196 97 176 121 171 121 c 0
 169 118 162 93 162 65 c 0
 162 35 154 13 148 10 c 0
 147 10 147 10 147 10 c 2
 140 10 137 31 137 87 c 0xdb
 137 132 134 168 130 168 c 0
 120 168 48 91 42 74 c 0
 39 65 30 59 24 59 c 0
 20 59 18 61 18 64 c 0
 18 77 46 112 93 159 c 2
 134 203 l 1
 134 267 l 1
 134 301 129 349 129 372 c 2
 129 414 l 1
 87 414 l 2
 79 413 71 409 65 409 c 0
 53 409 45 410 45 412 c 0
 45 423 75 437 98 437 c 0xbd
 110 437 122 441 125 446 c 0
 126 448 127 458 127 472 c 0
 127 488 124 510 124 534 c 0
 124 609 117 615 98 622 c 0
 79 629 67 648 67 668 c 0
 67 674 68 680 70 685 c 0
 73 694 88 710 103 721 c 0
EndSplineSet
Validated: 1
EndChar

StartChar: Eth
Encoding: 208 208 52
Width: 258
Flags: HW
LayerCount: 2
Fore
SplineSet
105 714 m 0
 126 731 145 745 148 745 c 0
 149 745 l 0
 153 745 155 737 163 695 c 0
 165 686 168 624 168 556 c 0
 168 391 170 390 199 390 c 0
 200 390 l 0
 219 390 224 387 222 378 c 0
 221 370 212 365 197 363 c 0
 179 361 174 358 174 346 c 0
 174 326 195 167 195 80 c 0
 195 48 197 27 197 15 c 0
 197 8 197 5 195 3 c 0
 193 1 191 -0 189 -0 c 0
 179 -0 171 27 171 96 c 0
 171 141 150 218 150 268 c 1
 150 359 l 1
 131 361 l 1
 106 361 108 384 133 390 c 2
 148 394 l 1
 148 505 l 1
 148 638 140 704 131 704 c 0
 127 704 105 688 82 669 c 0
 54 645 39 635 33 635 c 0
 29 635 28 637 28 642 c 0
 28 649 37 658 105 714 c 0
EndSplineSet
Validated: 1
EndChar

StartChar: Oacute
Encoding: 211 211 53
Width: 204
Flags: HW
LayerCount: 2
Fore
SplineSet
105 65 m 0
 111 78 124 78 124 65 c 0
 124 54 111 44 105 50 c 0
 103 52 103 58 105 65 c 0
61 737 m 0
 63 743 66 745 68 745 c 0
 81 745 97 679 113 564 c 0
 140 364 150 292 156 262 c 0
 159 243 170 188 170 142 c 0
 170 95 180 47 184 34 c 0
 186 26 188 19 188 14 c 0
 188 4 183 0 174 0 c 0
 167 0 161 21 156 70 c 0
 150 110 143 140 139 140 c 0
 135 140 116 128 96 116 c 0
 79 104 62 94 59 94 c 0
 58 95 58 96 58 97 c 0
 58 103 71 115 103 136 c 0
 131 155 143 169 143 188 c 0
 143 195 141 203 138 212 c 0
 134 222 131 222 114 213 c 0
 103 207 89 202 85 202 c 0
 80 202 68 196 58 188 c 0
 47 179 36 175 29 175 c 0
 26 175 24 176 24 179 c 0
 24 180 23 182 24 183 c 0
 26 188 52 204 82 218 c 2
 136 245 l 1
 132 271 l 2
 129 294 59 661 59 706 c 0
 59 716 59 730 61 737 c 0
EndSplineSet
EndChar

StartChar: Aacute
Encoding: 193 193 54
Width: 198
Flags: HW
LayerCount: 2
Fore
SplineSet
134 722 m 0
 138 739 144 745 154 745 c 0
 165 745 168 743 164 722 c 0
 163 717 163 702 163 679 c 0
 163 526 176 36 181 21 c 0
 182 19 182 17 182 15 c 0
 182 7 174 -0 165 -0 c 0
 161 -0 156 2 153 7 c 0
 150 12 142 54 142 100 c 0
 142 146 134 187 133 190 c 2
 132 190 l 2
 127 190 106 178 83 163 c 0
 12 114 8 131 79 184 c 1
 134 231 l 1
 134 464 l 1
 134 528 132 588 132 635 c 0
 132 682 132 715 134 722 c 0
79 102 m 0
 81 106 89 109 95 109 c 0
 101 109 106 106 106 102 c 0
 106 98 99 94 90 94 c 0
 81 94 76 98 79 102 c 0
EndSplineSet
EndChar

StartChar: Eacute
Encoding: 201 201 55
Width: 286
Flags: HW
LayerCount: 2
Fore
SplineSet
78 738 m 0
 80 740 82 741 83 741 c 0
 91 741 99 712 99 625 c 0
 99 505 111 426 115 421 c 1
 115 421 116 421 118 421 c 0
 126 421 149 423 175 427 c 0
 198 430 215 432 227 432 c 0
 244 432 252 429 252 422 c 0
 252 421 251 419 251 418 c 0
 250 413 227 405 200 405 c 0
 133 405 120 398 120 366 c 0
 120 357 122 346 122 332 c 0
 122 163 148 49 157 25 c 0
 160 14 162 2 160 0 c 0
 159 -1 157 0 155 0 c 0
 146 0 133 11 133 22 c 0
 133 49 103 358 99 370 c 0
 96 380 87 383 62 383 c 0
 19 383 23 402 67 409 c 2
 96 415 l 1
 92 449 l 1
 92 469 85 513 81 548 c 0
 76 589 74 644 74 684 c 0
 74 713 75 735 78 738 c 0
159 327 m 0
 163 340 185 340 188 328 c 2
 188 327 l 2
 188 319 173 309 163 309 c 0
 162 309 160 309 159 310 c 0
 157 313 156 320 159 327 c 0
EndSplineSet
EndChar

StartChar: Iacute
Encoding: 205 205 56
Width: 190
Flags: HW
LayerCount: 2
Fore
SplineSet
76 721 m 0
 79 725 81 728 84 728 c 0
 90 728 95 715 100 689 c 0
 110 638 135 427 135 311 c 0
 135 193 145 128 154 65 c 0
 156 48 158 34 158 24 c 0
 158 14 156 8 154 5 c 0
 150 1 145 -2 143 0 c 0
 139 4 116 158 116 306 c 0
 116 374 105 453 101 482 c 0
 97 512 90 557 90 581 c 0
 90 606 83 647 79 671 c 0
 76 687 75 703 75 712 c 0
 75 717 75 720 76 721 c 0
29 378 m 0
 32 384 38 389 44 389 c 0
 50 389 55 384 55 378 c 0
 55 372 48 367 40 367 c 0
 30 367 26 370 29 378 c 0
EndSplineSet
EndChar

StartChar: Odieresis
Encoding: 214 214 57
Width: 212
Flags: HW
LayerCount: 2
Fore
SplineSet
39 722 m 0
 42 731 47 733 52 728 c 0
 60 720 102 524 102 495 c 0
 102 484 103 480 114 480 c 0
 120 480 128 481 139 483 c 0
 150 485 158 486 164 486 c 0
 174 486 176 483 176 475 c 0
 176 468 169 462 160 462 c 0
 133 462 112 436 112 409 c 0
 112 406 112 404 112 402 c 0
 115 387 120 360 122 341 c 0
 126 318 128 310 134 310 c 0
 136 310 139 312 143 314 c 0
 165 325 164 324 164 297 c 0
 164 283 155 266 147 261 c 0
 139 255 135 255 135 233 c 0
 135 210 149 163 149 59 c 0
 149 47 150 36 150 27 c 0
 150 10 149 0 146 0 c 0
 137 0 113 78 113 192 c 0
 113 223 104 248 99 248 c 0
 94 248 79 238 63 226 c 0
 18 192 19 212 64 252 c 0
 93 278 101 284 101 302 c 0
 101 309 100 317 98 328 c 0
 89 396 87 410 73 410 c 0
 70 410 65 409 60 408 c 0
 30 402 28 414 57 433 c 0
 69 441 75 447 75 467 c 0
 75 490 67 531 51 615 c 0
 43 656 38 695 38 713 c 0
 38 717 38 720 39 722 c 0
EndSplineSet
EndChar

StartChar: AE
Encoding: 198 198 58
Width: 234
Flags: HW
LayerCount: 2
Fore
SplineSet
21 740 m 0
 24 744 31 745 38 745 c 0
 54 745 74 661 100 478 c 2
 121 333 l 1
 162 341 l 2
 194 345 213 331 173 314 c 0
 153 304 133 300 129 290 c 0
 128 288 128 284 128 279 c 0
 128 258 133 211 139 161 c 0
 148 89 153 49 153 26 c 0
 153 5 149 -0 141 0 c 0
 127 0 122 19 108 152 c 0
 96 259 92 284 81 284 c 0
 80 284 79 284 77 283 c 0
 54 275 41 271 34 271 c 0
 27 271 25 274 25 280 c 0
 25 288 39 299 57 304 c 0
 74 310 89 317 89 319 c 0
 89 339 40 635 29 677 c 0
 24 701 20 722 20 733 c 0
 20 737 20 739 21 740 c 0
EndSplineSet
EndChar

StartChar: aacute
Encoding: 225 225 59
Width: 198
Flags: HW
LayerCount: 2
Fore
SplineSet
134 722 m 0
 138 739 144 745 154 745 c 0
 165 745 168 743 164 722 c 0
 163 717 163 702 163 679 c 0
 163 526 176 36 181 21 c 0
 182 19 182 17 182 15 c 0
 182 7 174 -0 165 -0 c 0
 161 -0 156 2 153 7 c 0
 150 12 142 54 142 100 c 0
 142 146 134 187 133 190 c 2
 132 190 l 2
 127 190 106 178 83 163 c 0
 12 114 8 131 79 184 c 1
 134 231 l 1
 134 464 l 1
 134 528 132 588 132 635 c 0
 132 682 132 715 134 722 c 0
79 102 m 0
 81 106 89 109 95 109 c 0
 101 109 106 106 106 102 c 0
 106 98 99 94 90 94 c 0
 81 94 76 98 79 102 c 0
EndSplineSet
EndChar

StartChar: ae
Encoding: 230 230 60
Width: 234
Flags: HW
LayerCount: 2
Fore
SplineSet
21 740 m 0
 24 744 31 745 38 745 c 0
 54 745 74 661 100 478 c 2
 121 333 l 1
 162 341 l 2
 194 345 213 331 173 314 c 0
 153 304 133 300 129 290 c 0
 128 288 128 284 128 279 c 0
 128 258 133 211 139 161 c 0
 148 89 153 49 153 26 c 0
 153 5 149 -0 141 0 c 0
 127 0 122 19 108 152 c 0
 96 259 92 284 81 284 c 0
 80 284 79 284 77 283 c 0
 54 275 41 271 34 271 c 0
 27 271 25 274 25 280 c 0
 25 288 39 299 57 304 c 0
 74 310 89 317 89 319 c 0
 89 339 40 635 29 677 c 0
 24 701 20 722 20 733 c 0
 20 737 20 739 21 740 c 0
EndSplineSet
EndChar

StartChar: eacute
Encoding: 233 233 61
Width: 286
Flags: HW
LayerCount: 2
Fore
SplineSet
78 738 m 0
 80 740 82 741 83 741 c 0
 91 741 99 712 99 625 c 0
 99 505 111 426 115 421 c 1
 115 421 116 421 118 421 c 0
 126 421 149 423 175 427 c 0
 198 430 215 432 227 432 c 0
 244 432 252 429 252 422 c 0
 252 421 251 419 251 418 c 0
 250 413 227 405 200 405 c 0
 133 405 120 398 120 366 c 0
 120 357 122 346 122 332 c 0
 122 163 148 49 157 25 c 0
 160 14 162 2 160 0 c 0
 159 -1 157 0 155 0 c 0
 146 0 133 11 133 22 c 0
 133 49 103 358 99 370 c 0
 96 380 87 383 62 383 c 0
 19 383 23 402 67 409 c 2
 96 415 l 1
 92 449 l 1
 92 469 85 513 81 548 c 0
 76 589 74 644 74 684 c 0
 74 713 75 735 78 738 c 0
159 327 m 0
 163 340 185 340 188 328 c 2
 188 327 l 2
 188 319 173 309 163 309 c 0
 162 309 160 309 159 310 c 0
 157 313 156 320 159 327 c 0
EndSplineSet
EndChar

StartChar: iacute
Encoding: 237 237 62
Width: 190
Flags: HW
LayerCount: 2
Fore
SplineSet
76 721 m 0
 79 725 81 728 84 728 c 0
 90 728 95 715 100 689 c 0
 110 638 135 427 135 311 c 0
 135 193 145 128 154 65 c 0
 156 48 158 34 158 24 c 0
 158 14 156 8 154 5 c 0
 150 1 145 -2 143 0 c 0
 139 4 116 158 116 306 c 0
 116 374 105 453 101 482 c 0
 97 512 90 557 90 581 c 0
 90 606 83 647 79 671 c 0
 76 687 75 703 75 712 c 0
 75 717 75 720 76 721 c 0
29 378 m 0
 32 384 38 389 44 389 c 0
 50 389 55 384 55 378 c 0
 55 372 48 367 40 367 c 0
 30 367 26 370 29 378 c 0
EndSplineSet
EndChar

StartChar: eth
Encoding: 240 240 63
Width: 258
Flags: HW
LayerCount: 2
Fore
SplineSet
105 714 m 0
 126 731 145 745 148 745 c 0
 149 745 l 0
 153 745 155 737 163 695 c 0
 165 686 168 624 168 556 c 0
 168 391 170 390 199 390 c 0
 200 390 l 0
 219 390 224 387 222 378 c 0
 221 370 212 365 197 363 c 0
 179 361 174 358 174 346 c 0
 174 326 195 167 195 80 c 0
 195 48 197 27 197 15 c 0
 197 8 197 5 195 3 c 0
 193 1 191 -0 189 -0 c 0
 179 -0 171 27 171 96 c 0
 171 141 150 218 150 268 c 1
 150 359 l 1
 131 361 l 1
 106 361 108 384 133 390 c 2
 148 394 l 1
 148 505 l 1
 148 638 140 704 131 704 c 0
 127 704 105 688 82 669 c 0
 54 645 39 635 33 635 c 0
 29 635 28 637 28 642 c 0
 28 649 37 658 105 714 c 0
EndSplineSet
Validated: 1
EndChar

StartChar: oacute
Encoding: 243 243 64
Width: 204
Flags: HW
LayerCount: 2
Fore
SplineSet
105 65 m 0
 111 78 124 78 124 65 c 0
 124 54 111 44 105 50 c 0
 103 52 103 58 105 65 c 0
61 737 m 0
 63 743 66 745 68 745 c 0
 81 745 97 679 113 564 c 0
 140 364 150 292 156 262 c 0
 159 243 170 188 170 142 c 0
 170 95 180 47 184 34 c 0
 186 26 188 19 188 14 c 0
 188 4 183 0 174 0 c 0
 167 0 161 21 156 70 c 0
 150 110 143 140 139 140 c 0
 135 140 116 128 96 116 c 0
 79 104 62 94 59 94 c 0
 58 95 58 96 58 97 c 0
 58 103 71 115 103 136 c 0
 131 155 143 169 143 188 c 0
 143 195 141 203 138 212 c 0
 134 222 131 222 114 213 c 0
 103 207 89 202 85 202 c 0
 80 202 68 196 58 188 c 0
 47 179 36 175 29 175 c 0
 26 175 24 176 24 179 c 0
 24 180 23 182 24 183 c 0
 26 188 52 204 82 218 c 2
 136 245 l 1
 132 271 l 2
 129 294 59 661 59 706 c 0
 59 716 59 730 61 737 c 0
EndSplineSet
EndChar

StartChar: odieresis
Encoding: 246 246 65
Width: 212
Flags: HW
LayerCount: 2
Fore
SplineSet
39 722 m 0
 42 731 47 733 52 728 c 0
 60 720 102 524 102 495 c 0
 102 484 103 480 114 480 c 0
 120 480 128 481 139 483 c 0
 150 485 158 486 164 486 c 0
 174 486 176 483 176 475 c 0
 176 468 169 462 160 462 c 0
 133 462 112 436 112 409 c 0
 112 406 112 404 112 402 c 0
 115 387 120 360 122 341 c 0
 126 318 128 310 134 310 c 0
 136 310 139 312 143 314 c 0
 165 325 164 324 164 297 c 0
 164 283 155 266 147 261 c 0
 139 255 135 255 135 233 c 0
 135 210 149 163 149 59 c 0
 149 47 150 36 150 27 c 0
 150 10 149 0 146 0 c 0
 137 0 113 78 113 192 c 0
 113 223 104 248 99 248 c 0
 94 248 79 238 63 226 c 0
 18 192 19 212 64 252 c 0
 93 278 101 284 101 302 c 0
 101 309 100 317 98 328 c 0
 89 396 87 410 73 410 c 0
 70 410 65 409 60 408 c 0
 30 402 28 414 57 433 c 0
 69 441 75 447 75 467 c 0
 75 490 67 531 51 615 c 0
 43 656 38 695 38 713 c 0
 38 717 38 720 39 722 c 0
EndSplineSet
EndChar

StartChar: Thorn
Encoding: 222 222 66
Width: 284
Flags: HW
LayerCount: 2
Fore
SplineSet
27 728 m 0
 30 736 40 745 48 745 c 0
 63 745 66 736 66 698 c 0
 66 672 73 622 73 586 c 0
 73 511 78 512 193 429 c 0
 245 392 270 369 270 357 c 0
 270 347 265 340 260 340 c 0
 250 340 166 272 130 235 c 0
 117 221 113 215 113 191 c 0
 113 177 116 158 116 130 c 0
 116 83 123 36 123 25 c 0
 123 -3 107 -9 94 14 c 0
 89 24 77 76 77 131 c 0
 77 185 44 339 44 472 c 0
 44 586 26 688 26 719 c 0
 26 725 27 727 27 728 c 0
125 427 m 0
 114 439 104 445 98 445 c 0
 91 445 88 439 88 427 c 0
 88 423 88 418 89 412 c 0
 91 394 99 353 99 320 c 0
 99 287 109 261 113 261 c 0
 125 261 217 342 217 353 c 0
 217 358 199 372 179 385 c 0
 158 398 134 418 125 427 c 0
EndSplineSet
EndChar

StartChar: thorn
Encoding: 254 254 67
Width: 284
Flags: HWO
LayerCount: 2
Fore
SplineSet
27 728 m 0
 30 736 40 745 48 745 c 0
 63 745 66 736 66 698 c 0
 67 672 73 622 73 586 c 0
 73 511 78 512 193 429 c 0
 245 392 270 369 270 357 c 0
 270 347 265 340 260 340 c 0
 250 340 166 272 130 235 c 0
 117 221 113 215 113 191 c 0
 113 177 116 158 116 130 c 0
 116 83 123 36 123 25 c 0
 123 -3 107 -9 94 14 c 0
 89 24 77 76 77 131 c 0
 77 185 44 339 44 472 c 0
 44 586 26 688 26 719 c 0
 26 725 27 727 27 728 c 0
125 427 m 0
 114 439 104 445 98 445 c 0
 91 445 88 439 88 427 c 0
 88 423 88 418 89 412 c 0
 91 394 99 353 99 320 c 0
 99 287 109 261 113 261 c 0
 125 261 217 342 217 353 c 0
 217 358 199 372 179 385 c 0
 158 398 134 418 125 427 c 0
EndSplineSet
EndChar

StartChar: Yacute
Encoding: 221 221 68
Width: 294
Flags: HW
LayerCount: 2
Fore
SplineSet
73 642 m 0
 73 665 70 680 70 691 c 0
 70 704 72 708 75 708 c 0
 76 708 76 708 77 708 c 0
 83 706 91 692 94 676 c 0
 102 638 132 472 132 351 c 0
 132 295 145 238 151 225 c 0
 187 145 199 120 216 98 c 0
 226 85 234 71 234 66 c 0
 234 62 241 52 250 44 c 0
 262 33 263 27 257 19 c 0
 244 4 236 6 228 27 c 0
 220 50 169 127 162 127 c 0
 160 127 159 118 159 105 c 0
 159 75 164 22 168 16 c 0
 169 12 166 5 161 0 c 0
 160 -1 159 -0 158 -0 c 0
 151 -0 147 18 140 78 c 0
 135 124 128 165 125 168 c 2
 124 168 l 2
 114 168 64 112 39 75 c 0
 35 66 30 64 30 68 c 0
 30 73 51 103 76 134 c 0
 102 166 124 196 124 201 c 0
 124 218 92 485 85 528 c 0
 81 552 73 603 73 642 c 0
69 77 m 0
 84 93 99 90 95 71 c 0
 91 56 76 51 66 61 c 0
 63 64 65 71 69 77 c 0
EndSplineSet
Validated: 1
EndChar

StartChar: yacute
Encoding: 253 253 69
Width: 294
Flags: HW
LayerCount: 2
Fore
SplineSet
73 642 m 0
 73 665 70 680 70 691 c 0
 70 704 72 708 75 708 c 0
 76 708 76 708 77 708 c 0
 83 706 91 692 94 676 c 0
 102 638 132 472 132 351 c 0
 132 295 145 238 151 225 c 0
 187 145 199 120 216 98 c 0
 226 85 234 71 234 66 c 0
 234 62 241 52 250 44 c 0
 262 33 263 27 257 19 c 0
 244 4 236 6 228 27 c 0
 220 50 169 127 162 127 c 0
 160 127 159 118 159 105 c 0
 159 75 164 22 168 16 c 0
 169 12 166 5 161 0 c 0
 160 -1 159 -0 158 -0 c 0
 151 -0 147 18 140 78 c 0
 135 124 128 165 125 168 c 2
 124 168 l 2
 114 168 64 112 39 75 c 0
 35 66 30 64 30 68 c 0
 30 73 51 103 76 134 c 0
 102 166 124 196 124 201 c 0
 124 218 92 485 85 528 c 0
 81 552 73 603 73 642 c 0
69 77 m 0
 84 93 99 90 95 71 c 0
 91 56 76 51 66 61 c 0
 63 64 65 71 69 77 c 0
EndSplineSet
Validated: 1
EndChar
